<svg width="40" height="40" viewBox="0 0 40 40" fill="none" xmlns="http://www.w3.org/2000/svg">
<rect x="0.5" y="0.5" width="39" height="39" stroke="#1F1F1F"/>
<path d="M6.65997 22V20.58C7.37997 20.5667 7.93331 20.5267 8.31997 20.46C8.70664 20.3933 8.98664 20.2533 9.15997 20.04C9.33331 19.8133 9.43331 19.46 9.45997 18.98C9.49997 18.4867 9.51997 17.8067 9.51997 16.94V8.23999H11.24V16.4C11.24 17.4667 11.22 18.3533 11.18 19.06C11.14 19.7533 11.0466 20.3 10.9 20.7C10.7533 21.0867 10.5133 21.3733 10.18 21.56C9.85997 21.7467 9.41331 21.8667 8.83997 21.92C8.27997 21.9733 7.55331 22 6.65997 22Z" fill="#1F1F1F"/>
<rect x="0.5" y="0.5" width="39" height="39" rx="3.5" stroke="#1F1F1F"/>
</svg>
