<svg width="15" height="14" viewBox="0 0 15 14" fill="none" xmlns="http://www.w3.org/2000/svg">
<path d="M12.0667 14H2.73334C2.1145 14 1.521 13.7542 1.08342 13.3166C0.645834 12.879 0.400002 12.2855 0.400002 11.6667V2.33333C0.400002 1.71449 0.645834 1.121 1.08342 0.683418C1.521 0.245833 2.1145 0 2.73334 0H5.84445C6.05073 0 6.24856 0.0819442 6.39442 0.227806C6.54028 0.373667 6.62222 0.571498 6.62222 0.777778C6.62222 0.984057 6.54028 1.18189 6.39442 1.32775C6.24856 1.47361 6.05073 1.55556 5.84445 1.55556H2.73334C2.52706 1.55556 2.32922 1.6375 2.18336 1.78336C2.0375 1.92922 1.95556 2.12705 1.95556 2.33333V11.6667C1.95556 11.8729 2.0375 12.0708 2.18336 12.2166C2.32922 12.3625 2.52706 12.4444 2.73334 12.4444H12.0667C12.2729 12.4444 12.4708 12.3625 12.6166 12.2166C12.7625 12.0708 12.8444 11.8729 12.8444 11.6667V8.55556C12.8444 8.34928 12.9264 8.15145 13.0723 8.00558C13.2181 7.85972 13.4159 7.77778 13.6222 7.77778C13.8285 7.77778 14.0263 7.85972 14.1722 8.00558C14.3181 8.15145 14.4 8.34928 14.4 8.55556V11.6667C14.4 12.2855 14.1542 12.879 13.7166 13.3166C13.279 13.7542 12.6855 14 12.0667 14Z" fill="#1F1F1F"/>
<path d="M14.4 0.816681V4.70557C14.3992 4.85912 14.353 5.00901 14.2672 5.13635C14.1814 5.26369 14.0598 5.36278 13.9178 5.42113C13.8255 5.46467 13.7243 5.48598 13.6222 5.48335C13.5199 5.48394 13.4184 5.46432 13.3236 5.42561C13.2289 5.38691 13.1427 5.32988 13.07 5.25779L11.6389 3.8889L7.91334 7.61446C7.84103 7.68736 7.75501 7.74522 7.66023 7.78471C7.56545 7.82419 7.46379 7.84452 7.36111 7.84452C7.25844 7.84452 7.15678 7.82419 7.062 7.78471C6.96722 7.74522 6.8812 7.68736 6.80889 7.61446C6.73599 7.54215 6.67813 7.45613 6.63864 7.36135C6.59916 7.26657 6.57883 7.16491 6.57883 7.06224C6.57883 6.95956 6.59916 6.8579 6.63864 6.76312C6.67813 6.66834 6.73599 6.58232 6.80889 6.51001L10.5111 2.76113L9.14223 1.3689C9.03037 1.26215 8.95286 1.12448 8.91961 0.973479C8.88637 0.822474 8.89888 0.664985 8.95556 0.521126C9.01759 0.368855 9.12628 0.240159 9.26602 0.153519C9.40576 0.0668796 9.56937 0.0267535 9.73334 0.0389033H13.6222C13.6866 0.0277223 13.7523 0.0277223 13.8167 0.0389033C13.8526 0.0319739 13.8896 0.0319739 13.9256 0.0389033C14.0189 0.0756663 14.1036 0.131234 14.1745 0.20215C14.2455 0.273067 14.301 0.357815 14.3378 0.451125C14.3447 0.487091 14.3447 0.524049 14.3378 0.560014C14.3784 0.63949 14.3997 0.727424 14.4 0.816681Z" fill="#1F1F1F"/>
</svg>
